<svg xmlns="http://www.w3.org/2000/svg" viewBox="0 0 337.71 121.76"><defs><style>.cls-1{fill:#75378c;}.cls-2{fill:#ffd73b;}</style></defs><g id="Layer_2" data-name="Layer 2"><g id="Layer_1-2" data-name="Layer 1"><path class="cls-1" d="M11.77,88.46c-3.37-1.3-4.9-3-4.9-5.27,0-1.71,1.53-2.6,3.31-2.6,3.07,0,7,2,7,2l2-4.62A23.11,23.11,0,0,0,10,75.62c-5.74,0-10,3.78-10,8.28s2.49,7.34,8.52,9.59c2.9,1.06,4.38,2.84,4.38,4.91,0,1.83-1.3,3-4.08,3-3,0-7.81-2.85-7.76-2.85,1.53,3,8.48,4.48,11.46,5.3,1.08.3,2.18.46,3.27.69a8.47,8.47,0,0,0,3.91-7C19.7,92.54,16.75,90.35,11.77,88.46Z"/><path class="cls-1" d="M41.61,75.85a11.07,11.07,0,0,0-9.18,4.27V62.9l-6.74,1.18V105.8h6.74V90.18c0-5.39,3.91-9.06,7.16-9.06,2.85,0,3.91,2.07,3.91,5.39v19.25q3.38-.23,6.74-.48V86C50.24,79.76,47.7,75.85,41.61,75.85Z"/><path class="cls-1" d="M69.38,75.62c-9.06,0-13.49,6.8-13.49,15.74,0,6.22,1.77,10.76,5.59,13.14q7.8-.48,15.61-.74c3.51-2.78,5.24-7.51,5.24-13.05C82.33,81.3,78.43,75.62,69.38,75.62Zm.05,25.8c-5.08,0-6.27-4.8-6.27-10.66s1.07-10.17,5.62-10.17c5.09,0,6.27,4.79,6.27,10.71C75.05,97,74,101.42,69.43,101.42Z"/><path class="cls-1" d="M112.05,64.08,105.3,62.9V76.27a32.76,32.76,0,0,0-4.67-.42c-8.4,0-14.14,6.63-14.14,15.63,0,5.35,1.29,9.55,3.92,12.06,2.61,0,5.23,0,7.84,0,1.88,0,3.77.09,5.65.18A10.23,10.23,0,0,0,106.61,99a12.37,12.37,0,0,0,1.44,5.07q2.67.24,5.29.71l1.55-.63c-.18-.42-2.84-3.2-2.84-12.6ZM105.3,89.76c0,5.8-2.9,11.6-6.8,11.6-4.32,0-4.73-5-4.73-10.48,0-6,1.72-10.29,7.63-10.29a16.37,16.37,0,0,1,3.9.65Z"/><path class="cls-1" d="M175.69,77.57a56,56,0,0,0-11.6-1.72c-8.4,0-14.14,6.63-14.14,15.63s3.49,14.67,10.89,14.67c4.67,0,7.51-2.13,8.87-6.15a16.42,16.42,0,0,1,1.3,6.21c0,4.14-1.89,7.1-6.27,7.1-3,0-6.27-1.42-8.58-2.31l-1.66,5.15a28.73,28.73,0,0,0,10.83,2.49c7.22,0,11.84-4.15,11.84-12.43,0-4.74-1.9-7.64-1.78-12.37Zm-6.93,12.66c0,5.68-3.07,11.19-6.8,11.19-4.32,0-4.73-5-4.73-10.54,0-6,1.72-10.29,7.63-10.29a16.46,16.46,0,0,1,3.9.65Z"/><path class="cls-1" d="M139.3,103c.36,0,.73,0,1.09,0a19.29,19.29,0,0,1,6.15,1.23l.08,0s-2.84-3.26-2.84-12.6v-14a55.46,55.46,0,0,0-11.42-1.72c-8.4,0-14.14,6.63-14.14,15.63,0,6.35,1.82,11.08,5.55,13.28,1.75-.14,3.48-.37,5.08-.62,2.44-.38,4.88-.8,7.33-1A10.81,10.81,0,0,0,138.34,99,11.74,11.74,0,0,0,139.3,103ZM137,89.76c0,5.8-2.9,11.66-6.8,11.66-4.32,0-4.73-5-4.73-10.54,0-6,1.72-10.29,7.63-10.29a16.46,16.46,0,0,1,3.9.65Z"/><path class="cls-1" d="M207.84,90.71c0-9.41-3.91-15.09-13-15.09s-13.49,6.8-13.49,15.74c0,6.43,1.9,11.07,6,13.37,3.2,0,8,0,13.57,0C205.53,102.26,207.84,97,207.84,90.71Zm-12.91,10.71c-5.08,0-6.27-4.8-6.27-10.66s1.07-10.17,5.62-10.17c5.09,0,6.28,4.79,6.28,10.71C200.56,97,199.49,101.42,194.93,101.42Z"/><path class="cls-1" d="M227,82.48a5.19,5.19,0,0,1,2.9.65l1.9-6.56a12.24,12.24,0,0,0-3.67-.65c-3.79,0-6.93,1.89-8.52,6.44a12.31,12.31,0,0,0-2.84-6.21l-5.33,2.13s2.9,3.2,2.9,12.6V105c2.23.06,4.48.12,6.75.2V89.58C221.05,85.38,224.12,82.48,227,82.48Z"/><path class="cls-2" d="M237,102c0-2.61-1.54-4.44-4.26-4.44a4.51,4.51,0,0,0-2.77,8.06c1.64.09,3.26.18,4.85.29A4.28,4.28,0,0,0,237,102Z"/><path class="cls-2" d="M255,101.36c-2.78,0-6.5-1.24-6.5-10.48s3.78-10,6.21-10c2,0,3.08,1.12,4.26,2.42l3.79-3.61a9.26,9.26,0,0,0-8-4c-7.63,0-13.55,5.74-13.55,16.15,0,7.11,2.62,12.23,8.6,13.85q6.25-.83,12.54-1.45l-1.56-4A21.81,21.81,0,0,1,255,101.36Z"/><path class="cls-2" d="M291.31,90.71c0-9.41-3.91-15.09-13-15.09s-13.49,6.8-13.49,15.74c0,5.49,1.39,9.67,4.34,12.22,5.91-.43,11.76-.61,17.6-.55C289.78,100.2,291.31,95.82,291.31,90.71Zm-12.9,10.71c-5.09,0-6.28-4.8-6.28-10.66s1.07-10.17,5.63-10.17c5.08,0,6.27,4.79,6.27,10.71C284,97,283,101.42,278.41,101.42Z"/><path class="cls-2" d="M337.71,105.37V86c0-6.09-1.95-10.18-8.1-10.18a10.31,10.31,0,0,0-9.41,5.51c-1.07-3.2-3.2-5.51-7.22-5.51a10.32,10.32,0,0,0-9.88,6.69,12.45,12.45,0,0,0-2.9-6.39l-5.33,2.13s2.9,3.2,2.9,12.6v12.49c2.24.1,4.49.23,6.75.37V91.12c0-6.21,3.25-10,6.45-10,2.54,0,3.43,2.07,3.43,5.39v17.9c2.22.17,4.45.31,6.69.46V90.06c0-5.45,3.55-8.94,6.51-8.94,2.54,0,3.43,2.07,3.43,5.39v18.83C333.27,105.41,335.49,105.4,337.71,105.37Z"/><path class="cls-1" d="M162.07,92.51c-.3-.21-.6-.42-.88-.65A202.4,202.4,0,0,1,142,73.92a113.92,113.92,0,0,1-16.33-21.45c-3.19-5.64-5.66-11.54-6.11-18.12a21.51,21.51,0,0,1,5.62-16.43A35.51,35.51,0,0,1,137,9.6c8.84-4.14,18.25-6.25,27.83-7.53,6.91-.92,13.87-1.39,20.81-2,1-.09,2,0,3.22,0-.52.31-.85.51-1.19.7a106.44,106.44,0,0,0-28,21.83,58.7,58.7,0,0,0-11.32,17.7A40.28,40.28,0,0,0,146,63.18c1.73,8.85,6,16.49,11.44,23.52,1.51,2,3.14,3.8,4.72,5.69Zm-11-87.2a59.83,59.83,0,0,0-18,7.73c-4.75,3.19-8.53,7.2-10.35,12.77C121,31.1,121.47,36.37,123,41.6c2.08,6.9,5.72,13,9.88,18.79A158,158,0,0,0,153,82.73a.43.43,0,0,0,.43.12c-.93-1-1.84-2-2.77-3-7-7.48-13.38-15.37-18.41-24.31-3.12-5.55-5.62-11.34-6.53-17.71-1.43-10.1,2.11-18.12,10.17-24.23,5.43-4.11,11.63-6.6,18.08-8.55,2-.61,4.1-1.13,6.15-1.69L160,3.15C157.06,3.86,154.05,4.51,151.09,5.31Z"/><path class="cls-1" d="M113,64c.64-.85,1.15-1.6,1.72-2.3,2.34-2.85,4.53-3.51,8-2.15,2,.79,3.82,1.87,5.72,2.83a2.75,2.75,0,0,0,1.16.4c-.83-.94-1.68-1.88-2.49-2.84a38.82,38.82,0,0,1-9-19.87,29.28,29.28,0,0,1,3.08-18.5.81.81,0,0,0,.08-.7c-.65,1-1.36,2.06-2,3.14a60.85,60.85,0,0,0-8.07,31.76A23.58,23.58,0,0,0,112.49,63C112.6,63.32,112.76,63.6,113,64Z"/><path class="cls-2" d="M160,3.15c-3,.71-6,1.36-8.95,2.16a59.83,59.83,0,0,0-18,7.73c-4.75,3.19-8.53,7.2-10.35,12.77C121,31.1,121.47,36.37,123,41.6c2.08,6.9,5.72,13,9.88,18.79A158,158,0,0,0,153,82.73a.43.43,0,0,0,.43.12c-.93-1-1.84-2-2.77-3-7-7.48-13.38-15.37-18.41-24.31-3.12-5.55-5.62-11.34-6.53-17.71-1.43-10.1,2.11-18.12,10.17-24.23,5.43-4.11,11.63-6.6,18.08-8.55,2-.61,4.1-1.13,6.15-1.69Z"/><path class="cls-2" d="M30.1,116.43a2,2,0,0,1-.79,1.74,3.73,3.73,0,0,1-2.26.59,11.22,11.22,0,0,1-1.39-.08,6.3,6.3,0,0,1-1.2-.32v-2a8.1,8.1,0,0,0,1.26.41A5.39,5.39,0,0,0,27,117c.54,0,.81-.12.81-.37a.42.42,0,0,0-.23-.34,10.83,10.83,0,0,0-1.31-.58,3.27,3.27,0,0,1-1.38-.92,2.13,2.13,0,0,1-.4-1.31,1.8,1.8,0,0,1,.78-1.56,3.62,3.62,0,0,1,2.19-.56,5.64,5.64,0,0,1,1.33.15,8.48,8.48,0,0,1,1.3.46l-.67,1.6a6.87,6.87,0,0,0-1.05-.38,3.28,3.28,0,0,0-.9-.16c-.41,0-.61.1-.61.3a.36.36,0,0,0,.21.31,12.34,12.34,0,0,0,1.23.54,4.76,4.76,0,0,1,1.13.6,1.75,1.75,0,0,1,.54.71A2.35,2.35,0,0,1,30.1,116.43Z"/><path class="cls-2" d="M32.6,109.65a1,1,0,0,1,.31-.83,2,2,0,0,1,2,0,1,1,0,0,1,.32.82c0,.73-.45,1.09-1.33,1.09S32.6,110.38,32.6,109.65Zm2.54,9H32.66v-7.2h2.48Z"/><path class="cls-2" d="M46.87,118.64v-3.91a2.27,2.27,0,0,0-.2-1.1.66.66,0,0,0-.63-.36.9.9,0,0,0-.84.48,3.48,3.48,0,0,0-.26,1.53v3.36H42.45v-3.91a2.41,2.41,0,0,0-.19-1.1.65.65,0,0,0-.62-.36.89.89,0,0,0-.85.52,4.08,4.08,0,0,0-.26,1.7v3.15H38v-7.2h1.88l.31.89h.14a1.84,1.84,0,0,1,.83-.75,2.75,2.75,0,0,1,1.24-.26,2.43,2.43,0,0,1,2.18.94h.2a2,2,0,0,1,.84-.69,2.84,2.84,0,0,1,1.2-.25,2.46,2.46,0,0,1,1.89.65,2.87,2.87,0,0,1,.61,2v4.68Z"/><path class="cls-2" d="M56.53,118.76a2.21,2.21,0,0,1-1.83-.83h-.12a8.69,8.69,0,0,1,.12.94v2.89H52.21V111.44h2l.35.92h.12a2.27,2.27,0,0,1,3.78,0,4.74,4.74,0,0,1,.68,2.71,4.67,4.67,0,0,1-.71,2.74A2.22,2.22,0,0,1,56.53,118.76Zm-.83-5.49a.79.79,0,0,0-.77.39,2.58,2.58,0,0,0-.23,1.15v.2a2.8,2.8,0,0,0,.24,1.34.84.84,0,0,0,.78.41.73.73,0,0,0,.7-.41,3.14,3.14,0,0,0,.21-1.35,3.07,3.07,0,0,0-.21-1.33A.76.76,0,0,0,55.7,113.27Z"/><path class="cls-2" d="M64.23,118.64H61.75v-9.88h2.48Z"/><path class="cls-2" d="M70.59,118.76a3.88,3.88,0,0,1-2.79-1,3.62,3.62,0,0,1-1-2.72,3.89,3.89,0,0,1,.92-2.8,3.43,3.43,0,0,1,2.62-1,3.49,3.49,0,0,1,2.51.84,3.23,3.23,0,0,1,.89,2.44v1.11H69.31a1.24,1.24,0,0,0,.44.94,1.74,1.74,0,0,0,1.14.35,5.08,5.08,0,0,0,1.2-.13,5.7,5.7,0,0,0,1.19-.42v1.78a4.46,4.46,0,0,1-1.21.42A9,9,0,0,1,70.59,118.76ZM70.44,113a1.05,1.05,0,0,0-.73.28,1.32,1.32,0,0,0-.35.87H71.5a1.21,1.21,0,0,0-.3-.83A1,1,0,0,0,70.44,113Z"/><path class="cls-2" d="M85.26,111.32a2.14,2.14,0,0,1,1.86,1,4.68,4.68,0,0,1,.69,2.72,4.76,4.76,0,0,1-.69,2.75,2.23,2.23,0,0,1-1.93,1,3,3,0,0,1-.71-.08,2.2,2.2,0,0,1-.56-.24,3,3,0,0,1-.57-.51H83.2l-.39.71H80.87v-9.88h2.48V111q0,.41-.09,1.38h.09a2.1,2.1,0,0,1,1.91-1.05Zm-.91,2a.86.86,0,0,0-.76.36,2.09,2.09,0,0,0-.24,1.13v.35a2.52,2.52,0,0,0,.24,1.27.88.88,0,0,0,.79.38.72.72,0,0,0,.67-.45,2.8,2.8,0,0,0,.24-1.31C85.29,113.84,85,113.27,84.35,113.27Z"/><path class="cls-2" d="M95.52,118.64l-.31-.9h-.14a2.08,2.08,0,0,1-.87.76,3.12,3.12,0,0,1-1.31.26,2.42,2.42,0,0,1-1.84-.69,2.68,2.68,0,0,1-.66-1.94v-4.69h2.48v3.93a2.31,2.31,0,0,0,.2,1.07.69.69,0,0,0,.66.36,1,1,0,0,0,.91-.5,3.92,3.92,0,0,0,.27-1.71v-3.15h2.48v7.2Z"/><path class="cls-2" d="M105.83,116.43a2,2,0,0,1-.78,1.74,3.75,3.75,0,0,1-2.26.59,11,11,0,0,1-1.39-.08,6.2,6.2,0,0,1-1.21-.32v-2a8.6,8.6,0,0,0,1.27.41,5.31,5.31,0,0,0,1.22.17c.54,0,.81-.12.81-.37a.41.41,0,0,0-.22-.34,10.52,10.52,0,0,0-1.32-.58,3.27,3.27,0,0,1-1.38-.92,2.12,2.12,0,0,1-.39-1.31,1.82,1.82,0,0,1,.77-1.56,3.66,3.66,0,0,1,2.19-.56,5.73,5.73,0,0,1,1.34.15,8.87,8.87,0,0,1,1.3.46l-.68,1.6a7.15,7.15,0,0,0-1-.38,3.28,3.28,0,0,0-.91-.16c-.4,0-.61.1-.61.3a.37.37,0,0,0,.22.31,10.37,10.37,0,0,0,1.23.54,4.65,4.65,0,0,1,1.12.6,1.87,1.87,0,0,1,.55.71A2.53,2.53,0,0,1,105.83,116.43Z"/><path class="cls-2" d="M108.33,109.65a1,1,0,0,1,.31-.83,1.51,1.51,0,0,1,1-.27,1.49,1.49,0,0,1,1,.28,1,1,0,0,1,.32.82c0,.73-.44,1.09-1.33,1.09S108.33,110.38,108.33,109.65Zm2.54,9h-2.48v-7.2h2.48Z"/><path class="cls-2" d="M118.32,118.64v-3.93a2.19,2.19,0,0,0-.21-1.08.71.71,0,0,0-.66-.36,1,1,0,0,0-.91.5,3.71,3.71,0,0,0-.28,1.72v3.15h-2.48v-7.2h1.87l.31.89h.15a1.92,1.92,0,0,1,.88-.76,3.06,3.06,0,0,1,1.29-.25,2.44,2.44,0,0,1,1.85.69,2.67,2.67,0,0,1,.67,1.95v4.68Z"/><path class="cls-2" d="M127.13,118.76a3.88,3.88,0,0,1-2.79-1,3.62,3.62,0,0,1-1-2.72,3.89,3.89,0,0,1,.92-2.8,3.43,3.43,0,0,1,2.62-1,3.49,3.49,0,0,1,2.51.84,3.2,3.2,0,0,1,.89,2.44v1.11h-4.44a1.24,1.24,0,0,0,.44.94,1.74,1.74,0,0,0,1.14.35,5.08,5.08,0,0,0,1.2-.13,5.7,5.7,0,0,0,1.19-.42v1.78a4.46,4.46,0,0,1-1.21.42A9,9,0,0,1,127.13,118.76ZM127,113a1.05,1.05,0,0,0-.73.28,1.32,1.32,0,0,0-.35.87H128a1.21,1.21,0,0,0-.3-.83A1,1,0,0,0,127,113Z"/><path class="cls-2" d="M138.42,116.43a2,2,0,0,1-.79,1.74,3.73,3.73,0,0,1-2.26.59,11.1,11.1,0,0,1-1.39-.08,6.39,6.39,0,0,1-1.21-.32v-2a8.6,8.6,0,0,0,1.27.41,5.39,5.39,0,0,0,1.23.17c.54,0,.8-.12.8-.37a.41.41,0,0,0-.22-.34,10.83,10.83,0,0,0-1.31-.58,3.38,3.38,0,0,1-1.39-.92,2.12,2.12,0,0,1-.39-1.31,1.8,1.8,0,0,1,.78-1.56,3.62,3.62,0,0,1,2.19-.56,5.71,5.71,0,0,1,1.33.15,8.48,8.48,0,0,1,1.3.46l-.67,1.6a6.87,6.87,0,0,0-1.05-.38,3.28,3.28,0,0,0-.9-.16c-.41,0-.61.1-.61.3a.36.36,0,0,0,.21.31,10.37,10.37,0,0,0,1.23.54,5,5,0,0,1,1.13.6,1.85,1.85,0,0,1,.54.71A2.35,2.35,0,0,1,138.42,116.43Z"/><path class="cls-2" d="M146.52,116.43a2,2,0,0,1-.79,1.74,3.73,3.73,0,0,1-2.26.59,11.1,11.1,0,0,1-1.39-.08,6.59,6.59,0,0,1-1.21-.32v-2a8.6,8.6,0,0,0,1.27.41,5.39,5.39,0,0,0,1.23.17c.54,0,.81-.12.81-.37a.42.42,0,0,0-.23-.34,10.83,10.83,0,0,0-1.31-.58,3.27,3.27,0,0,1-1.38-.92,2.07,2.07,0,0,1-.4-1.31,1.8,1.8,0,0,1,.78-1.56,3.62,3.62,0,0,1,2.19-.56,5.64,5.64,0,0,1,1.33.15,8.48,8.48,0,0,1,1.3.46l-.67,1.6a6.87,6.87,0,0,0-1-.38,3.28,3.28,0,0,0-.9-.16c-.41,0-.61.1-.61.3a.36.36,0,0,0,.21.31,10.37,10.37,0,0,0,1.23.54,5,5,0,0,1,1.13.6,1.75,1.75,0,0,1,.54.71A2.35,2.35,0,0,1,146.52,116.43Z"/><path class="cls-2" d="M206.36,115.82a2,2,0,0,1-.79,1.75,3.71,3.71,0,0,1-2.26.59,9.44,9.44,0,0,1-1.39-.09,5.59,5.59,0,0,1-1.2-.31v-2a7.45,7.45,0,0,0,1.26.42,5.39,5.39,0,0,0,1.23.17c.54,0,.81-.13.81-.37a.42.42,0,0,0-.23-.34,8.79,8.79,0,0,0-1.31-.58,3.19,3.19,0,0,1-1.38-.93,2.1,2.1,0,0,1-.39-1.31,1.8,1.8,0,0,1,.77-1.56,3.73,3.73,0,0,1,2.19-.56,5.79,5.79,0,0,1,1.34.16,7.37,7.37,0,0,1,1.29.45l-.67,1.6a8.12,8.12,0,0,0-1-.38,3.56,3.56,0,0,0-.9-.15c-.4,0-.61.1-.61.3a.37.37,0,0,0,.22.31,11.54,11.54,0,0,0,1.22.53,4.73,4.73,0,0,1,1.13.61,1.84,1.84,0,0,1,.55.7A2.61,2.61,0,0,1,206.36,115.82Z"/><path class="cls-2" d="M208.86,109.05a1,1,0,0,1,.31-.83,1.51,1.51,0,0,1,1-.27,1.49,1.49,0,0,1,1,.28,1,1,0,0,1,.32.82c0,.73-.44,1.09-1.33,1.09S208.86,109.78,208.86,109.05Zm2.54,9h-2.48v-7.19h2.48Z"/><path class="cls-2" d="M223.14,118v-3.91a2.38,2.38,0,0,0-.2-1.09.68.68,0,0,0-.64-.37.87.87,0,0,0-.83.49,3.32,3.32,0,0,0-.27,1.53V118h-2.49v-3.91a2.39,2.39,0,0,0-.19-1.09.64.64,0,0,0-.61-.37.92.92,0,0,0-.86.52,4.15,4.15,0,0,0-.26,1.7V118h-2.48v-7.19h1.87l.31.89h.15a1.89,1.89,0,0,1,.82-.76,2.93,2.93,0,0,1,1.24-.26,2.42,2.42,0,0,1,2.18,1h.2a2,2,0,0,1,.85-.7,2.91,2.91,0,0,1,1.19-.25,2.47,2.47,0,0,1,1.89.66,2.84,2.84,0,0,1,.61,2V118Z"/><path class="cls-2" d="M232.79,118.16a2.21,2.21,0,0,1-1.83-.83h-.12a8.4,8.4,0,0,1,.12.94v2.88h-2.48V110.84h2l.35.91H231a2.18,2.18,0,0,1,1.91-1,2.15,2.15,0,0,1,1.87,1,4.78,4.78,0,0,1,.68,2.72,4.69,4.69,0,0,1-.71,2.74A2.22,2.22,0,0,1,232.79,118.16Zm-.83-5.5a.79.79,0,0,0-.76.39,2.48,2.48,0,0,0-.24,1.16v.2a2.83,2.83,0,0,0,.24,1.34.87.87,0,0,0,.79.41.74.74,0,0,0,.69-.41,3.2,3.2,0,0,0,.21-1.36,3.1,3.1,0,0,0-.21-1.33A.78.78,0,0,0,232,112.66Z"/><path class="cls-2" d="M240.49,118H238v-9.88h2.48Z"/><path class="cls-2" d="M246.85,118.16a3.84,3.84,0,0,1-2.79-1,3.59,3.59,0,0,1-1-2.72,3.88,3.88,0,0,1,.92-2.79,3.44,3.44,0,0,1,2.63-1,3.51,3.51,0,0,1,2.51.85A3.23,3.23,0,0,1,250,114v1.11h-4.44a1.23,1.23,0,0,0,.45.94,1.69,1.69,0,0,0,1.13.34,5.61,5.61,0,0,0,1.2-.12,5.7,5.7,0,0,0,1.19-.42v1.78a4.16,4.16,0,0,1-1.2.41A8,8,0,0,1,246.85,118.16Zm-.15-5.76a1,1,0,0,0-.73.28,1.29,1.29,0,0,0-.35.86h2.14a1.25,1.25,0,0,0-.3-.83A1,1,0,0,0,246.7,112.4Z"/><path class="cls-2" d="M259.61,118h-2.48v-9.88h2.48Z"/><path class="cls-2" d="M262.45,109.05a1.07,1.07,0,0,1,.31-.83,1.54,1.54,0,0,1,1-.27,1.5,1.5,0,0,1,1,.28,1,1,0,0,1,.31.82c0,.73-.44,1.09-1.32,1.09S262.45,109.78,262.45,109.05Zm2.55,9h-2.48v-7.19H265Z"/><path class="cls-2" d="M272.29,112.7h-1.53V118h-2.48V112.7h-.95v-1.22l1-.61v-.12a3,3,0,0,1,.58-2,2.44,2.44,0,0,1,1.87-.63,5.46,5.46,0,0,1,.93.08,6.9,6.9,0,0,1,1,.27l-.54,1.6a3.46,3.46,0,0,0-.89-.12.51.51,0,0,0-.42.17,1,1,0,0,0-.13.57v.19h1.53Z"/><path class="cls-2" d="M277.91,118.16a3.87,3.87,0,0,1-2.79-1,3.59,3.59,0,0,1-1-2.72,3.93,3.93,0,0,1,.92-2.79,3.44,3.44,0,0,1,2.63-1,3.51,3.51,0,0,1,2.51.85,3.23,3.23,0,0,1,.88,2.44v1.11h-4.43a1.19,1.19,0,0,0,.44.94,1.71,1.71,0,0,0,1.13.34,5.16,5.16,0,0,0,2.39-.54v1.78a4.16,4.16,0,0,1-1.2.41A8,8,0,0,1,277.91,118.16Zm-.14-5.76a1,1,0,0,0-.74.28,1.29,1.29,0,0,0-.34.86h2.13a1.3,1.3,0,0,0-.29-.83A1,1,0,0,0,277.77,112.4Z"/></g></g></svg>